# Blender v2.93.5 OBJ File: ''
# www.blender.org
mtllib pohyi.mtl
o Цилиндр
v -0.309017 -1.000000 0.951057
v -0.309017 1.000000 0.951057
v -0.587785 -1.000000 0.809017
v -0.587785 1.000000 0.809017
v -0.809017 -1.000000 0.587785
v -0.809017 1.000000 0.587785
v -0.951056 -1.000000 0.309017
v -0.951056 1.000000 0.309017
v -0.005831 -1.000000 0.001333
v -0.005831 1.000000 0.001333
v -0.005831 -1.000000 0.001333
v -0.005831 1.000000 0.001333
v -0.309017 -1.000000 0.951057
v -0.309017 1.000000 0.951057
v 0.000000 -1.000000 0.951057
v 0.000000 1.000000 0.951057
v -0.999789 -1.000000 0.001333
v -0.999789 1.000000 0.001333
v -0.483462 1.000000 0.516139
v -0.392584 1.000000 0.449784
v -0.528503 -1.000000 0.526052
v -0.951056 0.508345 0.309017
vt 0.450000 0.500000
vt 0.450000 1.000000
vt 0.400000 1.000000
vt 0.400000 0.500000
vt 0.350000 1.000000
vt 0.350000 0.500000
vt 0.300000 1.000000
vt 0.300000 0.877086
vt 0.300000 0.500000
vt 0.250215 0.500000
vt 0.250215 1.000000
vt 0.250215 1.000000
vt 0.250215 0.500000
vt 0.250215 1.000000
vt 0.250215 0.500000
vt 0.450000 0.500000
vt 0.450000 1.000000
vt 0.450000 0.500000
vt 0.450000 1.000000
vt 0.450000 0.500000
vt 0.450000 1.000000
vt 0.300000 1.000000
vt 0.450000 1.000000
vt 0.450000 1.000000
vt 0.400000 1.000000
vt 0.250215 1.000000
vt 0.350000 1.000000
vt 0.250215 1.000000
vt 0.300000 0.500000
vt 0.450000 0.500000
vt 0.400000 0.500000
vt 0.250215 0.500000
vt 0.350000 0.500000
vn -0.4540 0.0000 0.8910
vn -0.7071 0.0000 0.7071
vn -0.8910 0.0000 0.4540
vn 0.0000 0.0000 -1.0000
vn 0.0000 0.0000 1.0000
vn 1.0000 0.0000 -0.0061
vn -0.9877 -0.0000 0.1564
vn 0.0000 1.0000 0.0000
vn 0.0000 -1.0000 0.0000
usemtl None
s off
f 1/1/1 2/2/1 4/3/1 3/4/1
f 3/4/2 4/3/2 6/5/2 5/6/2
f 5/6/3 6/5/3 8/7/3 22/8/3 7/9/3
f 17/10/4 18/11/4 10/12/4 9/13/4
f 9/13/5 10/12/5 12/14/5 11/15/5
f 2/2/5 1/1/5 13/16/5 14/17/5
f 14/17/5 13/16/5 15/18/5 16/19/5
f 16/19/6 15/18/6 11/20/6 12/21/6
f 7/9/7 22/8/7 8/7/7 18/11/7 17/10/7
f 8/7/8 6/5/8 19/22/8
f 16/19/8 12/21/8 20/23/8 19/24/8
f 4/3/8 2/2/8 19/25/8
f 18/11/8 8/7/8 19/26/8
f 14/17/8 16/19/8 19/24/8
f 6/5/8 4/3/8 19/27/8
f 10/12/8 18/11/8 19/26/8 20/28/8
f 7/9/9 17/10/9 21/29/9
f 1/1/9 3/4/9 21/30/9
f 15/18/9 13/16/9 21/30/9
f 3/4/9 5/6/9 21/31/9
f 17/10/9 9/13/9 21/32/9
f 11/20/9 15/18/9 21/30/9
f 5/6/9 7/9/9 21/33/9
